# xmcd CD database file
#
# Track frame offsets:
#	150
#	11558
#	25928
#	41167
#	54083
#	70629
#	80173
#	93713
#	103888
#	120007
#	127797
#	136142
#	145359
#	173422
#	185520
#	203108
#	218011
#	232570
#	246367
#	261692
#
# Disc length: 3661 seconds
#
# Revision: 0
# Processed by: cddbd v1.5.2PL0 Copyright (c) Steve Scherf et al.
# Submitted via: CDex 1.51
#
DISCID=0f0e4b14
DTITLE=Oscar Peterson - Oscar Peterson plays the Harry Warren and Vincent Youmans songbook CD1
DYEAR=2011
DGENRE=Jazz
TTITLE0=Lullaby of Broadway
TTITLE1=Serenade in blue
TTITLE2=You'll never know
TTITLE3=I had the craziest dream
TTITLE4=I only have eyes for you
TTITLE5=Chattanooga Choo-Choo
TTITLE6=More than you know
TTITLE7=Carioca
TTITLE8=Without a song
TTITLE9=Drums in my heart
TTITLE10=Time on m hands
TTITLE11=Great day
TTITLE12=Tea for two
TTITLE13=Time on my hands
TTITLE14=I know that you know
TTITLE15=Sometimes I'm happy
TTITLE16=Great day
TTITLE17=More than you know
TTITLE18=Hallelujah
TTITLE19=Carioca
EXTD=YEAR: 2011
EXTT0=
EXTT1=
EXTT2=
EXTT3=
EXTT4=
EXTT5=
EXTT6=
EXTT7=
EXTT8=
EXTT9=
EXTT10=
EXTT11=
EXTT12=
EXTT13=
EXTT14=
EXTT15=
EXTT16=
EXTT17=
EXTT18=
EXTT19=
PLAYORDER=
